<svg xmlns="http://www.w3.org/2000/svg" width="420" height="588" viewBox="0 0 420 588" role="img" aria-labelledby="title desc">
  <title id="title">BK Classic - 3 of Clubs</title>
  <desc id="desc">A clean BK Classic playing card for the 3 of Clubs.</desc>
  <defs>
    <filter id="shadow" x="-20%" y="-20%" width="140%" height="140%">
      <feDropShadow dx="0" dy="6" stdDeviation="7" flood-color="#000000" flood-opacity="0.18"/>
    </filter>
    <style>
      .rank { font-family: Georgia, 'Times New Roman', serif; font-size: 48px; font-weight: 800; letter-spacing: 0; }
      .center-rank { font-family: Georgia, 'Times New Roman', serif; font-size: 172px; font-weight: 800; letter-spacing: 0; }
    </style>
  </defs>
  <rect x="10" y="10" width="400" height="568" rx="24" fill="#fbf7ec" filter="url(#shadow)"/>
  <rect x="18" y="18" width="384" height="552" rx="18" fill="none" stroke="#222222" stroke-width="2" opacity="0.22"/>
  <rect x="28" y="28" width="364" height="532" rx="12" fill="none" stroke="#171717" stroke-width="1.5" opacity="0.34"/>
  <path d="M86 92 H334 M86 496 H334" stroke="#171717" stroke-width="1" opacity="0.16"/>
  
    <g transform="translate(67 75) rotate(0)" fill="#171717">
      <text x="0" y="0" text-anchor="middle" class="rank">3</text>
      <g transform="translate(0 36) scale(0.34)"><path d="M0 -32 C13 -32 24 -21 24 -8 C24 -5 23 -2 22 1 C25 0 28 -1 31 -1 C45 -1 56 10 56 24 C56 38 45 49 31 49 C20 49 11 42 8 32 C9 49 16 62 29 76 H-29 C-16 62 -9 49 -8 32 C-11 42 -20 49 -31 49 C-45 49 -56 38 -56 24 C-56 10 -45 -1 -31 -1 C-28 -1 -25 0 -22 1 C-23 -2 -24 -5 -24 -8 C-24 -21 -13 -32 0 -32 Z"/></g>
    </g>
  
    <g transform="translate(353 513) rotate(180)" fill="#171717">
      <text x="0" y="0" text-anchor="middle" class="rank">3</text>
      <g transform="translate(0 36) scale(0.34)"><path d="M0 -32 C13 -32 24 -21 24 -8 C24 -5 23 -2 22 1 C25 0 28 -1 31 -1 C45 -1 56 10 56 24 C56 38 45 49 31 49 C20 49 11 42 8 32 C9 49 16 62 29 76 H-29 C-16 62 -9 49 -8 32 C-11 42 -20 49 -31 49 C-45 49 -56 38 -56 24 C-56 10 -45 -1 -31 -1 C-28 -1 -25 0 -22 1 C-23 -2 -24 -5 -24 -8 C-24 -21 -13 -32 0 -32 Z"/></g>
    </g>
  
  <g><g transform="translate(210 154) rotate(0) scale(0.48)" fill="#171717"><path d="M0 -32 C13 -32 24 -21 24 -8 C24 -5 23 -2 22 1 C25 0 28 -1 31 -1 C45 -1 56 10 56 24 C56 38 45 49 31 49 C20 49 11 42 8 32 C9 49 16 62 29 76 H-29 C-16 62 -9 49 -8 32 C-11 42 -20 49 -31 49 C-45 49 -56 38 -56 24 C-56 10 -45 -1 -31 -1 C-28 -1 -25 0 -22 1 C-23 -2 -24 -5 -24 -8 C-24 -21 -13 -32 0 -32 Z"/></g>
  <g transform="translate(210 294) rotate(0) scale(0.48)" fill="#171717"><path d="M0 -32 C13 -32 24 -21 24 -8 C24 -5 23 -2 22 1 C25 0 28 -1 31 -1 C45 -1 56 10 56 24 C56 38 45 49 31 49 C20 49 11 42 8 32 C9 49 16 62 29 76 H-29 C-16 62 -9 49 -8 32 C-11 42 -20 49 -31 49 C-45 49 -56 38 -56 24 C-56 10 -45 -1 -31 -1 C-28 -1 -25 0 -22 1 C-23 -2 -24 -5 -24 -8 C-24 -21 -13 -32 0 -32 Z"/></g>
  <g transform="translate(210 434) rotate(180) scale(0.48)" fill="#171717"><path d="M0 -32 C13 -32 24 -21 24 -8 C24 -5 23 -2 22 1 C25 0 28 -1 31 -1 C45 -1 56 10 56 24 C56 38 45 49 31 49 C20 49 11 42 8 32 C9 49 16 62 29 76 H-29 C-16 62 -9 49 -8 32 C-11 42 -20 49 -31 49 C-45 49 -56 38 -56 24 C-56 10 -45 -1 -31 -1 C-28 -1 -25 0 -22 1 C-23 -2 -24 -5 -24 -8 C-24 -21 -13 -32 0 -32 Z"/></g></g>
</svg>
